<svg xmlns="http://www.w3.org/2000/svg" xmlns:xlink="http://www.w3.org/1999/xlink" version="1.1" x="0px" y="0px" viewBox="0 0 48 60" style="enable-background:new 0 0 48 48;" xml:space="preserve"><path d="M30.7,8.4V2H31c0.6,0,1-0.4,1-1s-0.4-1-1-1c-5.3,0-9.1,0-14,0c-0.6,0-1,0.4-1,1s0.4,1,1,1h0.3v6.4c-4.1,0.3-7.4,3.8-7.4,8  v19.8c0,4.1,3.1,7.5,7,8l-0.9,2.4C15.8,47.3,16.3,48,17,48h14c0.7,0,1.2-0.7,0.9-1.3l-0.9-2.4c3.9-0.5,7-3.9,7-8V16.4  C38.1,12.2,34.8,8.7,30.7,8.4z M11.9,17.6h24.2v16.6H11.9V17.6z M28.7,2v6.4H25v-2h0.5c0.6,0,1-0.4,1-1s-0.4-1-1-1h-3  c-0.6,0-1,0.4-1,1s0.4,1,1,1H23v2h-3.7V2H28.7z M18,10.4c4.1,0,7.8,0,12.1,0c3.1,0,5.6,2.3,6,5.2H12C12.4,12.7,14.9,10.4,18,10.4z   M18.4,46l0.6-1.7H29l0.6,1.7H18.4z M30,42.3H18c-3.3,0-6.1-2.7-6.1-6.1v0h24.2v0C36.1,39.6,33.4,42.3,30,42.3z"/></svg>