<?xml version="1.0" encoding="UTF-8"?>
<svg width="120px" height="121px" viewBox="0 0 120 121" version="1.1" xmlns="http://www.w3.org/2000/svg" xmlns:xlink="http://www.w3.org/1999/xlink">
    <title>F4DD889A-3639-48A3-B6A6-28E8CFA3B3C9</title>
    <g id="Landing-Page-V3" stroke="none" stroke-width="1" fill="none" fill-rule="evenodd">
        <g id="Assets" transform="translate(-760.000000, -732.000000)" fill-rule="nonzero">
            <g id="efectivo" transform="translate(760.000000, 732.000000)">
                <circle id="Oval" fill="#5932FD" cx="59.9997656" cy="59.9997656" r="59.9997656"></circle>
                <path d="M102.999844,101.840625 C102.208828,102.653672 101.395781,103.442344 100.560703,104.20875 C100.548516,104.220937 100.536328,104.230781 100.523906,104.242969 C99.56625,105.124688 98.5795313,105.971953 97.5630469,106.787578 C96.15,107.926406 94.6807031,109.001484 93.1647656,110.007891 C93.0154688,110.108203 92.8659375,110.206172 92.7140625,110.304141 C83.3050781,116.436328 72.0691406,119.999531 60.0007031,119.999531 C59.7827344,119.999531 59.5624219,119.997188 59.3444531,119.994609 L59.1975,119.994609 C58.021875,119.979844 56.8563281,119.930859 55.6978125,119.845313 C54.5957813,119.769375 53.5035938,119.661563 52.4186719,119.524453 C52.1198438,119.487656 51.8210156,119.448516 51.5247656,119.404453 C50.5427344,119.267344 49.5679688,119.103281 48.6030469,118.917187 C48.0250781,118.807031 47.4496875,118.687031 46.8764063,118.559531 C46.8494531,118.554609 46.8250781,118.547344 46.798125,118.542422 L46.7957813,118.542422 C46.0169531,118.368516 45.245625,118.1775 44.4789844,117.971719 L43.9352344,117.824766 C43.2152344,117.626484 42.5025,117.413438 41.7949219,117.185625 C41.5671094,117.114609 41.341875,117.04125 41.1140625,116.965312 C40.8717188,116.887031 40.6317188,116.806172 40.3917188,116.720391 C40.0464844,116.602734 39.7010156,116.480391 39.3583594,116.353125 C38.9934375,116.218359 38.6310938,116.08125 38.2685156,115.941797 L4.86960938,36.2913281 L0.213984375,25.1925 L17.0090625,18.1492969 L60.2899219,0 L60.2922656,0 L63.2702344,7.0996875 L65.3470313,12.0539063 L66.4539844,14.6915625 L68.1290625,18.6883594 L68.6017969,19.8173437 L70.2916406,23.8434375 L86.1684375,61.7069531 L86.5750781,62.6767969 L94.5904688,81.7886719 L95.3791406,83.6669531 L95.3791406,83.6692969 L100.02,94.7336719 L102.999844,101.840625 Z" id="Path" fill="#BCC8D5"></path>
                <path d="M97.5632813,106.787578 C96.1502344,107.926406 94.6809375,109.001484 93.165,110.007891 C93.0157031,110.108203 92.8661719,110.206172 92.7142969,110.304141 C83.3053125,116.436328 72.069375,119.999531 60.0009375,119.999531 C59.7829687,119.999531 59.5626562,119.997188 59.3446875,119.994609 L59.1977344,119.994609 C58.0221094,119.979844 56.8565625,119.930859 55.6980469,119.845313 C54.5960156,119.769375 53.5038281,119.661563 52.4189062,119.524453 C52.1200781,119.487656 51.82125,119.448516 51.525,119.404453 C50.5429687,119.267344 49.5682031,119.103281 48.6032812,118.917187 C48.0253125,118.807031 47.4499219,118.687031 46.8766406,118.559531 L39.3583594,100.633125 L13.6760156,39.3892969 C14.653125,38.9582813 15.5397656,38.4072656 16.3258594,37.760625 C16.8058594,37.3638281 17.2490625,36.9328125 17.6507813,36.4675781 C19.3209375,34.5597656 20.3078906,32.1328125 20.4475781,29.600625 C20.5382813,27.9353906 20.2638281,26.2258594 19.5757031,24.5826562 L36.0525,17.6739844 L42.7846875,14.8502344 L46.0907812,13.4641406 C46.2229687,13.7800781 46.3699219,14.0885156 46.5267188,14.3873438 C47.2710937,15.7980469 48.2800781,16.993125 49.4629688,17.9407031 C50.3617969,18.6607031 51.3583594,19.23375 52.4189062,19.65 C52.8696094,19.8288281 53.3322656,19.978125 53.805,20.098125 C54.1797656,20.19375 54.5592187,20.2671094 54.9438281,20.3210156 C56.9029687,20.6123438 58.9626562,20.3896875 60.9217969,19.5813281 C60.9414844,19.5740625 60.9609375,19.5642188 60.980625,19.5569531 L60.9878906,19.5740625 L65.7290625,30.8833594 L77.5844531,59.1494531 L78.0473437,60.2514844 L79.3795312,63.4303125 L85.8963281,78.9642187 C85.8963281,78.9665625 85.8963281,78.9665625 85.8963281,78.9665625 L91.18125,91.5714844 L94.4383594,99.3346875 L97.5632813,106.787578 Z" id="Path" fill="#ADB9C6"></path>
                <circle id="Oval" fill="#53D37A" cx="56.3557031" cy="74.8432031" r="19.5754688"></circle>
                <path d="M106.161563,98.3264062 C105.750234,98.8235156 105.331406,99.3107812 104.900391,99.7933594 C104.285625,100.491328 103.649063,101.174531 103.000078,101.840625 C102.209063,102.653672 101.396016,103.442344 100.560938,104.20875 C100.54875,104.220937 100.536563,104.230781 100.524141,104.242969 C99.5664844,105.124687 98.5797656,105.971953 97.5632813,106.787578 C96.1502344,107.926406 94.6809375,109.001484 93.165,110.007891 C93.0157031,110.108203 92.8661719,110.206172 92.7142969,110.304141 C83.3053125,116.436328 72.069375,119.999531 60.0009375,119.999531 C59.7829688,119.999531 59.5626563,119.997188 59.3446875,119.994609 L59.1977344,119.994609 C58.0221094,119.979844 56.8565625,119.930859 55.6980469,119.845313 C54.5960156,119.769375 53.5038281,119.661563 52.4189063,119.524453 C52.1200781,119.487656 51.82125,119.448516 51.525,119.404453 C50.5429688,119.267344 49.5682031,119.103281 48.6032813,118.917187 C48.0253125,118.807031 47.4499219,118.687031 46.8766406,118.559531 C46.8496875,118.554609 46.8253125,118.547344 46.7983594,118.542422 L46.7960156,118.542422 C46.0171875,118.368516 45.2458594,118.1775 44.4792188,117.971719 L43.9354688,117.824766 L39.3583594,100.632891 L20.4475781,29.6008594 L17.6875781,19.2344531 L63.2702344,7.0996875 L78.7282031,2.98289063 L80.6409375,2.47359375 L80.9861719,3.77390625 L82.6221094,9.91359375 L83.893125,14.6915625 L85.7371875,21.6147656 L86.1705469,23.2385156 L97.9598438,67.5257812 L103.460156,88.1878125 L103.536094,88.471875 L106.161563,98.3264062 Z" id="Path" fill="#C5D2E0"></path>
                <path d="M100.560703,104.20875 C100.548516,104.220937 100.536328,104.230781 100.523906,104.242969 C99.56625,105.124687 98.5795313,105.971953 97.5630469,106.787578 C96.15,107.926406 94.6807031,109.001484 93.1647656,110.007891 C93.0154688,110.108203 92.8659375,110.206172 92.7140625,110.304141 C83.3050781,116.436328 72.0691406,119.999531 60.0007031,119.999531 C59.7827344,119.999531 59.5624219,119.997187 59.3444531,119.994609 L59.1975,119.994609 C58.021875,119.979844 56.8563281,119.930859 55.6978125,119.845312 C54.5957813,119.769375 53.5035938,119.661563 52.4186719,119.524453 C52.1198438,119.487656 51.8210156,119.448516 51.5247656,119.404453 L46.17375,99.3082031 L43.6171875,89.7107812 L37.9110937,68.2823437 L37.9110937,68.28 L29.0873437,35.135625 C30.1134375,34.8417187 31.0661719,34.4179688 31.933125,33.8842969 C32.4621094,33.5561719 32.9617969,33.1889062 33.4221094,32.7846094 C35.3371875,31.1217187 36.6473437,28.8515625 37.1299219,26.3608594 C37.4482031,24.7249219 37.4090625,22.9935937 36.9510937,21.271875 L49.4629687,17.9411719 L52.4189062,17.1550781 L61.6710937,14.6913281 L64.7348438,13.8759375 C64.8082031,14.1527344 64.8916406,14.4246094 64.9870313,14.6915625 C65.5282031,16.2539062 66.3853125,17.6303906 67.4629688,18.7715625 C67.820625,19.1463281 68.2000781,19.4964844 68.6017969,19.8173437 C69.4710938,20.5153125 70.4385938,21.0834375 71.4719531,21.4996875 C71.5699219,21.5388281 71.6702344,21.5779687 71.7707812,21.6147656 C73.9014844,22.408125 76.2916406,22.5724219 78.6548437,21.9428906 L89.6310938,63.1689844 L90.0082031,64.584375 L94.5902344,81.7884375 L95.2319531,84.1933594 L95.2319531,84.1957031 L98.4742969,96.3794531 L100.560703,104.20875 Z" id="Path" fill="#BEC9D5"></path>
                <circle id="Oval" fill="#53D37A" cx="66.52875" cy="76.0797656" r="19.5754688"></circle>
                <path d="M110.888203,91.7997656 C110.805,91.9319531 110.721563,92.0641406 110.638359,92.1939844 C109.274297,94.3342969 107.778047,96.3817969 106.161563,98.3261719 C105.750234,98.8232812 105.331406,99.3105469 104.900391,99.793125 C104.285625,100.491094 103.649063,101.174297 103.000078,101.840391 C102.209063,102.653437 101.396016,103.442109 100.560938,104.208516 C100.54875,104.220703 100.536563,104.230547 100.524141,104.242734 C99.5664844,105.124453 98.5797656,105.971719 97.5632813,106.787344 C96.1502344,107.926172 94.6809375,109.00125 93.165,110.007656 C93.0157031,110.107969 92.8661719,110.205937 92.7142969,110.303906 C83.3053125,116.436094 72.069375,119.999297 60.0009375,119.999297 C59.7829688,119.999297 59.5626563,119.996953 59.3446875,119.994375 L59.1977344,119.994375 C58.0221094,119.979609 56.8565625,119.930625 55.6980469,119.845078 C54.5960156,119.769141 53.5038281,119.661328 52.4189063,119.524219 C52.1200781,119.487422 51.82125,119.448281 51.525,119.404219 C50.5429688,119.267109 49.5682031,119.103047 48.6032813,118.916953 L46.1739844,99.3079687 L45.1282031,90.8810156 L41.5528125,62.0271094 L37.1299219,26.3601562 L36.0522656,17.67375 L35.8099219,15.7146094 L42.7846875,14.8502344 L46.5267188,14.3873437 L65.3470313,12.0534375 L82.6221094,9.913125 L91.3502344,8.83078125 L100.462969,7.70179687 L101.329922,14.6910937 L101.584688,16.7458594 L103.262344,30.2789062 L110.638594,89.7890625 L110.888203,91.7997656 Z" id="Path" fill="#CCD8E5"></path>
                <path d="M104.900391,99.7933594 C104.285625,100.491328 103.649062,101.174531 103.000078,101.840625 C102.209062,102.653672 101.396016,103.442344 100.560938,104.20875 C100.54875,104.220938 100.536563,104.230781 100.524141,104.242969 C99.5664844,105.124687 98.5797656,105.971953 97.5632813,106.787578 C96.1502344,107.926406 94.6809375,109.001484 93.165,110.007891 C93.0157031,110.108203 92.8661719,110.206172 92.7142969,110.304141 C83.3053125,116.436328 72.069375,119.999531 60.0009375,119.999531 C59.7829687,119.999531 59.5626563,119.997188 59.3446875,119.994609 L59.1977344,119.994609 C58.0221094,119.979844 56.8565625,119.930859 55.6980469,119.845313 L52.4997656,94.0354688 L52.4189062,93.3914063 L51.8826562,89.0690625 L49.1545312,67.065 L47.9301562,57.1736719 L44.9350781,33.0217969 C45.9904687,32.8725 46.9921875,32.5809375 47.9252344,32.1719531 C48.4933594,31.9197656 49.0371094,31.6232813 49.5489844,31.2853125 C50.6608594,30.5603906 51.6307031,29.6470313 52.4191406,28.5963281 C53.1391406,27.64125 53.7098438,26.5710938 54.0991406,25.4273438 C54.6353906,23.8502344 54.8339062,22.1285156 54.6159375,20.3629688 L54.9440625,20.32125 L60.9220313,19.5815625 L60.988125,19.5742969 L67.4632031,18.7710938 L68.1292969,18.6878906 L83.14875,16.8267188 C83.3690625,18.5948438 83.9814844,20.2160156 84.8925,21.6145313 C85.2672656,22.1974219 85.6957031,22.7385938 86.1707813,23.2382813 C86.9348437,24.0489844 87.8165625,24.7420313 88.7838281,25.2979688 C90.8458594,26.4808594 93.2971875,27.031875 95.8392188,26.7159375 L101.391094,71.4979687 L103.460391,88.1878125 L103.507031,88.5576562 L104.900391,99.7933594 Z" id="Path" fill="#BEC9D5"></path>
                <g id="Group" transform="translate(52.265625, 14.531250)">
                    <circle id="Oval" fill="#53D37A" cx="24.1741406" cy="64.1615625" r="19.5754687"></circle>
                    <path d="M65.2982813,0.160078125 L65.2982813,62.4447656 C63.7432031,67.7247656 61.4828906,72.7035937 58.6223438,77.2685156 C58.5391406,77.4007031 58.4557031,77.5328906 58.3725,77.6627344 C57.0084375,79.8030469 55.5121875,81.8505469 53.8957031,83.7949219 C53.484375,84.2920312 53.0655469,84.7792969 52.6345313,85.261875 C52.0197656,85.9598437 51.3832031,86.6430469 50.7342188,87.3091406 C49.9432031,88.1221875 49.1301563,88.9108594 48.2950781,89.6772656 C48.2828906,89.6894531 48.2707031,89.6992969 48.2582813,89.7114844 C47.300625,90.5932031 46.3139063,91.4404687 45.2974219,92.2560937 C43.884375,93.3949219 42.4150781,94.47 40.8991406,95.4764062 C40.7498438,95.5767187 40.6003125,95.6746875 40.4484375,95.7726562 C31.0394531,101.904844 19.8035156,105.468047 7.73507813,105.468047 C7.51710938,105.468047 7.29679688,105.465703 7.07882813,105.463125 L6.931875,105.463125 C5.75625,105.448359 4.59070313,105.399375 3.4321875,105.313828 C2.33015625,105.237891 1.23796875,105.130078 0.153046875,104.992969 L0.153046875,0.160078125 L65.2982813,0.160078125 Z" id="Path" fill="#DFE8F4"></path>
                </g>
                <path d="M110.638359,32.9925 L110.638359,92.1939844 C109.274297,94.3342969 107.778047,96.3817969 106.161563,98.3261719 C105.750234,98.8232813 105.331406,99.3105469 104.900391,99.793125 C104.285625,100.491094 103.649062,101.174297 103.000078,101.840391 C102.209063,102.653438 101.396016,103.442109 100.560937,104.208516 C100.54875,104.220703 100.536563,104.230547 100.524141,104.242734 C99.5664844,105.124453 98.5797656,105.971719 97.5632813,106.787344 C96.1502344,107.926172 94.6809375,109.00125 93.165,110.007656 C93.0157031,110.107969 92.8661719,110.205938 92.7142969,110.303906 C83.3053125,116.436094 72.069375,119.999297 60.0009375,119.999297 C59.7829688,119.999297 59.5626563,119.996953 59.3446875,119.994375 L59.3446875,88.2342188 L59.3423438,69.1591406 L59.3423438,32.9875781 C60.4101563,32.9704688 61.4411719,32.8038281 62.4157031,32.5099219 C63.0107813,32.3310938 63.5864063,32.1032813 64.1374219,31.8316406 C64.6957031,31.5597656 65.2272656,31.2414844 65.7292969,30.8838281 C67.2771094,29.7817969 68.5357031,28.3026562 69.3733594,26.5785937 C69.7896094,25.7214844 70.100625,24.8032031 70.2916406,23.8432031 C70.4313281,23.1208594 70.5072656,22.37625 70.5072656,21.6145312 L99.260625,21.6145312 C99.260625,25.0846875 100.815703,28.1925 103.262344,30.2789063 C103.438594,30.4307813 103.622344,30.5777344 103.808437,30.7171875 C105.710859,32.1452344 108.076641,32.9925 110.638359,32.9925 Z" id="Path" fill="#CCD8E5"></path>
                <circle id="Oval" fill="#DFE8F4" cx="84.9916406" cy="82.1875781" r="19.5754688"></circle>
            </g>
        </g>
    </g>
</svg>