<?xml version="1.0" encoding="UTF-8"?>
<svg width="68px" height="81px" viewBox="0 0 68 81" version="1.1" xmlns="http://www.w3.org/2000/svg" xmlns:xlink="http://www.w3.org/1999/xlink">
    <title>25732A18-A2B1-4B01-B9A1-5A08152E3996</title>
    <defs>
        <path d="M53.5,26.5686543 C53.5,11.74316 40.9200696,-0.192036743 25.6871718,0.531225178 C13.0708994,1.13073506 1.39672401,12.3894206 0.560857528,24.7838749 C-0.0457746688,33.7187722 3.92948332,41.7544046 10.3983631,46.872239 C16.635213,51.8030703 21.9970589,57.7156677 25.6731941,64.709033 L26.4363765,66.163807 C26.6712019,66.6120643 27.3253582,66.6120643 27.5601836,66.163807 L28.0102656,65.3085429 C31.7730625,58.1501749 37.1237262,51.9543228 43.525513,46.9299899 C49.6030171,42.1559113 53.5,34.8160403 53.5,26.5686543" id="path-1"></path>
        <filter x="-20.4%" y="-16.4%" width="140.8%" height="132.5%" filterUnits="objectBoundingBox" id="filter-2">
            <feMorphology radius="0.32175" operator="dilate" in="SourceAlpha" result="shadowSpreadOuter1"></feMorphology>
            <feOffset dx="1" dy="1" in="shadowSpreadOuter1" result="shadowOffsetOuter1"></feOffset>
            <feGaussianBlur stdDeviation="3" in="shadowOffsetOuter1" result="shadowBlurOuter1"></feGaussianBlur>
            <feComposite in="shadowBlurOuter1" in2="SourceAlpha" operator="out" result="shadowBlurOuter1"></feComposite>
            <feColorMatrix values="0 0 0 0 0.156862745   0 0 0 0 0.843137255   0 0 0 0 0.847058824  0 0 0 0.612625656 0" type="matrix" in="shadowBlurOuter1" result="shadowMatrixOuter1"></feColorMatrix>
            <feMorphology radius="0.32175" operator="dilate" in="SourceAlpha" result="shadowSpreadOuter2"></feMorphology>
            <feOffset dx="-1" dy="-1" in="shadowSpreadOuter2" result="shadowOffsetOuter2"></feOffset>
            <feGaussianBlur stdDeviation="3" in="shadowOffsetOuter2" result="shadowBlurOuter2"></feGaussianBlur>
            <feComposite in="shadowBlurOuter2" in2="SourceAlpha" operator="out" result="shadowBlurOuter2"></feComposite>
            <feColorMatrix values="0 0 0 0 0.35894523   0 0 0 0 0.957992938   0 0 0 0 0.981884058  0 0 0 0.295454545 0" type="matrix" in="shadowBlurOuter2" result="shadowMatrixOuter2"></feColorMatrix>
            <feMerge>
                <feMergeNode in="shadowMatrixOuter1"></feMergeNode>
                <feMergeNode in="shadowMatrixOuter2"></feMergeNode>
            </feMerge>
        </filter>
    </defs>
    <g id="Design-System" stroke="none" stroke-width="1" fill="none" fill-rule="evenodd">
        <g id="Gráficos" transform="translate(-927.000000, -773.000000)">
            <g id="Group-Copy-2" transform="translate(934.000000, 780.000000)">
                <g id="Fill-252">
                    <use fill="black" fill-opacity="1" filter="url(#filter-2)" xlink:href="#path-1"></use>
                    <use stroke="#50FEFF" stroke-width="0.6435" fill="#28D7D8" fill-rule="evenodd" xlink:href="#path-1"></use>
                </g>
                <path d="M36.5,25.4984353 C36.5,31.0218276 32.0218276,35.5 26.5015647,35.5 C20.9781724,35.5 16.5,31.0218276 16.5,25.4984353 C16.5,19.975043 20.9781724,15.5 26.5015647,15.5 C32.0218276,15.5 36.5,19.975043 36.5,25.4984353" id="Fill-253" fill="#FFFFFF"></path>
            </g>
        </g>
    </g>
</svg>