<?xml version="1.0" encoding="UTF-8"?>
<svg width="103px" height="30px" viewBox="0 0 103 30" version="1.1" xmlns="http://www.w3.org/2000/svg" xmlns:xlink="http://www.w3.org/1999/xlink">
    <title>0965036D-F3B5-4349-92DF-69F0281E2351</title>
    <g id="Landing-Page-V3" stroke="none" stroke-width="1" fill="none" fill-rule="evenodd">
        <g id="01-Landing" transform="translate(-25.000000, -3135.000000)" fill="#303034">
            <path d="M118.412862,3147.29919 L121.500678,3155.12287 L121.555966,3155.12287 L124.193688,3147.29919 L128,3147.29919 L122.566849,3161.07248 C122.321953,3161.70762 122.077178,3162.26868 121.848233,3162.75577 C121.619168,3163.24275 121.326901,3163.65588 120.971551,3163.98688 C120.616201,3164.32202 120.166106,3164.57149 119.629064,3164.74284 C119.084225,3164.9142 118.36549,3165 117.473217,3165 C116.654135,3165 115.86413,3164.89123 115.093156,3164.67608 L114.709209,3164.55965 L115.206675,3161.56348 C115.759429,3161.80502 116.335928,3161.92573 116.936174,3161.92573 C117.346811,3161.92573 117.678416,3161.883 117.946937,3161.7933 C118.207663,3161.70372 118.428693,3161.57508 118.60247,3161.40372 C118.776127,3161.23224 118.918363,3161.02574 119.028938,3160.7803 C119.117806,3160.59915 119.211058,3160.39383 119.305407,3160.16445 L119.399999,3159.92706 L119.676436,3159.24517 L114.409026,3147.29919 L118.412862,3147.29919 Z M31.0383263,3139.43411 C32.4634272,3139.75122 33.380203,3141.11382 33.1533851,3142.52664 L33.120637,3142.69636 L32.2714815,3146.44402 L44.4344638,3143.24737 C45.9027921,3142.86145 47.4080846,3143.73071 47.7966927,3145.18889 C48.1703077,3146.59089 47.3754564,3148.02701 46.0084227,3148.47841 L45.8416704,3148.52779 L40.5245647,3149.92527 L35.9903509,3151.11695 C34.522071,3151.50287 33.6548215,3153.02802 34.053374,3154.52348 C34.4371186,3155.96361 35.8546977,3156.85106 37.2703258,3156.57021 L37.4335999,3156.53259 L37.7348427,3156.45344 C37.1247896,3157.15817 36.8646342,3158.1641 37.1295435,3159.15817 C37.4706213,3160.43796 38.5773246,3161.30747 39.7931265,3161.36904 L39.9674838,3161.3723 L35.3630284,3162.58243 C30.9581404,3163.74015 26.4422145,3161.13244 25.2764387,3156.75794 C24.8717255,3155.2393 24.9244067,3153.70746 25.3493967,3152.30603 C25.3543124,3152.20169 25.3649413,3152.0967 25.3820597,3151.99144 L25.4127014,3151.8334 L27.7534212,3141.50203 C28.085516,3140.03012 29.5562698,3139.10431 31.0383263,3139.43411 Z M44.5992565,3157.1922 C44.9349769,3158.47341 44.2764391,3159.77165 43.117615,3160.17253 L42.9636675,3160.21966 L40.4442781,3160.89307 C39.1906986,3161.22811 37.8904297,3160.41598 37.5400642,3159.07905 C37.2043438,3157.79779 37.8628815,3156.49955 39.0217056,3156.09867 L39.1756532,3156.05154 L41.694994,3155.37813 C42.948622,3155.04304 44.248891,3155.85522 44.5992565,3157.1922 Z M62.4221282,3147.00683 C63.3460626,3147.00683 64.2148295,3147.15097 65.0281891,3147.44328 C65.8494641,3147.73558 66.552369,3148.15628 67.1524946,3148.70184 C67.7605355,3149.24337 68.2343757,3149.89791 68.5740151,3150.66157 C68.9214499,3151.42523 69.0952273,3152.27859 69.0952273,3153.22142 C69.0952273,3154.16436 68.9214499,3155.01772 68.5740151,3155.78138 C68.2343757,3156.54894 67.7605355,3157.19958 67.1524946,3157.74514 C66.552369,3158.29057 65.8494641,3158.70749 65.0281891,3158.99967 C64.2148295,3159.29576 63.3460626,3159.44002 62.4221282,3159.44002 C61.4981938,3159.44002 60.6294269,3159.29576 59.8160673,3158.99967 C59.0027076,3158.70749 58.2918874,3158.29057 57.6916419,3157.74514 C57.0915163,3157.19958 56.6176761,3156.54894 56.2702413,3155.78138 C55.9226866,3155.01772 55.7569444,3154.16436 55.7569444,3153.22142 C55.7569444,3152.27859 55.9226866,3151.42523 56.2702413,3150.66157 C56.6176761,3149.89791 57.0915163,3149.24337 57.6916419,3148.70184 C58.2918874,3148.15628 59.0027076,3147.73558 59.8160673,3147.44328 C60.6294269,3147.15097 61.4981938,3147.00683 62.4221282,3147.00683 Z M89.0591532,3140.71438 L89.0591532,3148.56539 L89.1065252,3148.56539 C89.5329934,3147.99652 90.0857469,3147.59523 90.7491951,3147.35748 C91.4204387,3147.12375 92.1390543,3147.00683 92.9130772,3147.00683 C93.7658936,3147.00683 94.5318812,3147.18221 95.2110401,3147.52907 C95.890199,3147.8796 96.4589032,3148.34729 96.9326234,3148.93166 C97.3986682,3149.51614 97.7618137,3150.18631 98.0146244,3150.94216 C98.2673152,3151.69801 98.4015159,3152.49291 98.4015159,3153.31881 C98.4015159,3154.21513 98.2593998,3155.03713 97.9750478,3155.78138 C97.698731,3156.52941 97.2960088,3157.17627 96.782592,3157.7217 C96.2613798,3158.26726 95.6375083,3158.68796 94.9109773,3158.98808 C94.1923617,3159.28807 93.3867975,3159.44002 92.4944045,3159.44002 C92.0680563,3159.44002 91.6652142,3159.38156 91.286238,3159.26855 C90.9071419,3159.15553 90.5517917,3159.01139 90.2358983,3158.8321 C89.9120895,3158.65293 89.6278574,3158.45424 89.3908773,3158.23211 C89.2131423,3158.06845 89.0576691,3157.90704 88.9310857,3157.74775 L88.8143778,3157.58916 L88.7590904,3157.58916 L88.7590904,3159.14772 L85.3555005,3159.14772 L85.3555005,3140.71438 L89.0591532,3140.71438 Z M106.79621,3147.00683 C107.720145,3147.00683 108.588912,3147.15097 109.402271,3147.44328 C110.223546,3147.73558 110.926451,3148.15628 111.526577,3148.70184 C112.134618,3149.24337 112.608458,3149.89791 112.948097,3150.66157 C113.295532,3151.42523 113.469309,3152.27859 113.469309,3153.22142 C113.469309,3154.16436 113.295532,3155.01772 112.948097,3155.78138 C112.608458,3156.54894 112.134618,3157.19958 111.526577,3157.74514 C110.926451,3158.29057 110.223546,3158.70749 109.402271,3158.99967 C108.588912,3159.29576 107.720145,3159.44002 106.79621,3159.44002 C105.872276,3159.44002 105.003509,3159.29576 104.190149,3158.99967 C103.37679,3158.70749 102.665969,3158.29057 102.065844,3157.74514 C101.465598,3157.19958 100.991758,3156.54894 100.644323,3155.78138 C100.296769,3155.01772 100.131027,3154.16436 100.131027,3153.22142 C100.131027,3152.27859 100.296769,3151.42523 100.644323,3150.66157 C100.991758,3149.89791 101.465598,3149.24337 102.065844,3148.70184 C102.665969,3148.15628 103.37679,3147.73558 104.190149,3147.44328 C105.003509,3147.15097 105.872276,3147.00683 106.79621,3147.00683 Z M74.9785928,3140.71429 L74.9785928,3151.97862 L79.0850876,3147.29916 L83.6259659,3147.29916 L78.8561428,3152.63695 L83.7523712,3159.14774 L79.0850876,3159.14774 L75.0259648,3153.15138 L74.9785928,3153.15138 L74.9785928,3159.14774 L71.2748201,3159.14774 L71.2748201,3140.71429 L74.9785928,3140.71429 Z M62.4221282,3150.22525 C61.4823632,3150.22525 60.7558323,3150.50193 60.2346201,3151.05127 C59.7213232,3151.60452 59.4607171,3152.32924 59.4607171,3153.22142 C59.4607171,3154.11762 59.7213232,3154.84234 60.2346201,3155.39168 C60.7558323,3155.94504 61.4823632,3156.22173 62.4221282,3156.22173 C63.3618932,3156.22173 64.0884241,3155.94504 64.6096363,3155.39168 C65.1308485,3154.84234 65.3914546,3154.11762 65.3914546,3153.22142 C65.3914546,3152.32924 65.1308485,3151.60452 64.6096363,3151.05127 C64.0884241,3150.50193 63.3618932,3150.22525 62.4221282,3150.22525 Z M91.7284168,3150.22525 C90.7886518,3150.22525 90.0621209,3150.50193 89.5409087,3151.05127 C89.0196965,3151.60452 88.7590904,3152.32924 88.7590904,3153.22142 C88.7590904,3154.11762 89.0196965,3154.84234 89.5409087,3155.39168 C90.0621209,3155.94504 90.7886518,3156.22173 91.7284168,3156.22173 C92.6681818,3156.22173 93.3947128,3155.94504 93.915925,3155.39168 C94.4292218,3154.84234 94.6898279,3154.11762 94.6898279,3153.22142 C94.6898279,3152.32924 94.4292218,3151.60452 93.915925,3151.05127 C93.3947128,3150.50193 92.6681818,3150.22525 91.7284168,3150.22525 Z M106.79621,3150.22525 C105.856445,3150.22525 105.129914,3150.50193 104.608702,3151.05127 C104.095405,3151.60452 103.834799,3152.32924 103.834799,3153.22142 C103.834799,3154.11762 104.095405,3154.84234 104.608702,3155.39168 C105.129914,3155.94504 105.856445,3156.22173 106.79621,3156.22173 C107.735975,3156.22173 108.462506,3155.94504 108.983718,3155.39168 C109.504931,3154.84234 109.765537,3154.11762 109.765537,3153.22142 C109.765537,3152.32924 109.504931,3151.60452 108.983718,3151.05127 C108.462506,3150.50193 107.735975,3150.22525 106.79621,3150.22525 Z M43.4200518,3152.07325 C43.7377626,3153.25033 43.0908984,3154.45267 41.9670016,3154.82834 L41.8177411,3154.87258 L41.6000608,3154.92901 L39.0659085,3155.58657 L37.2547536,3156.05647 C36.0397177,3156.37172 34.7814288,3155.62893 34.4498556,3154.40067 C34.132098,3153.22355 34.7790052,3152.02125 35.9029056,3151.64563 L36.0521663,3151.60139 L40.6151538,3150.41751 C41.8301898,3150.10225 43.0884787,3150.845 43.4200518,3152.07325 Z M43.7145249,3140.56628 C43.8037411,3140.88707 43.6318397,3141.21583 43.3242349,3141.34388 L43.2280078,3141.37607 L40.5712042,3142.05968 C40.2043638,3142.15412 39.8274331,3141.94456 39.7293438,3141.59169 C39.6401276,3141.27091 39.812029,3140.94214 40.1196338,3140.81409 L40.2158609,3140.78191 L42.8726645,3140.0983 C43.2395049,3140.0039 43.6164356,3140.21342 43.7145249,3140.56628 Z M40.2305514,3135.1679 C40.5461022,3135.2963 40.7133199,3135.63663 40.6357302,3135.95988 L40.6050125,3136.05611 L39.5891372,3138.5865 C39.4488697,3138.93585 39.0537964,3139.10462 38.7066905,3138.96343 C38.3911831,3138.83503 38.2239299,3138.49474 38.3015128,3138.17146 L38.3322293,3138.07522 L39.3481525,3135.54483 C39.48842,3135.19553 39.8834933,3135.02675 40.2305514,3135.1679 Z M35.3192046,3135.42108 L35.3506641,3135.51712 L36.0089619,3138.16529 C36.0998095,3138.53093 35.8787007,3138.90142 35.515023,3138.99281 C35.184407,3139.07584 34.8497934,3138.89967 34.7233959,3138.59225 L34.6919353,3138.49621 L34.0336375,3135.84804 C33.9427899,3135.48241 34.1639465,3135.11191 34.5275763,3135.02052 C34.858236,3134.93745 35.1928139,3135.11365 35.3192046,3135.42108 Z" id="Fill-66-Copy-2"></path>
        </g>
    </g>
</svg>