<?xml version="1.0" encoding="UTF-8"?>
<svg width="92px" height="83px" viewBox="0 0 92 83" version="1.1" xmlns="http://www.w3.org/2000/svg" xmlns:xlink="http://www.w3.org/1999/xlink">
    <title>109F3375-C11E-46F5-9FCD-0BCEC31E2DB3</title>
    <defs>
        <linearGradient x1="62.8031329%" y1="0%" x2="38.8913634%" y2="100%" id="linearGradient-1">
            <stop stop-color="#00DAFF" stop-opacity="0.5" offset="0%"></stop>
            <stop stop-color="#13015F" stop-opacity="0.5" offset="100%"></stop>
        </linearGradient>
        <path d="M25.3584,7.9952 L25.3584,58.1085333 L2.0104,58.1085333 C0.899733333,58.1085333 -0.000266666667,57.2085333 -0.000266666667,56.0978667 L-0.000266666667,10.0045333 C-0.000266666667,8.8952 0.899733333,7.9952 2.0104,7.9952 L25.3584,7.9952 Z" id="path-2"></path>
        <filter x="-90.7%" y="-45.9%" width="281.4%" height="191.8%" filterUnits="objectBoundingBox" id="filter-3">
            <feMorphology radius="0.5" operator="dilate" in="SourceAlpha" result="shadowSpreadOuter1"></feMorphology>
            <feOffset dx="0" dy="0" in="shadowSpreadOuter1" result="shadowOffsetOuter1"></feOffset>
            <feGaussianBlur stdDeviation="7.5" in="shadowOffsetOuter1" result="shadowBlurOuter1"></feGaussianBlur>
            <feComposite in="shadowBlurOuter1" in2="SourceAlpha" operator="out" result="shadowBlurOuter1"></feComposite>
            <feColorMatrix values="0 0 0 0 0.198644342   0 0 0 0 0.0461077704   0 0 0 0 0.415619339  0 0 0 0.352218094 0" type="matrix" in="shadowBlurOuter1" result="shadowMatrixOuter1"></feColorMatrix>
            <feMorphology radius="0.5" operator="dilate" in="SourceAlpha" result="shadowSpreadOuter2"></feMorphology>
            <feOffset dx="0" dy="0" in="shadowSpreadOuter2" result="shadowOffsetOuter2"></feOffset>
            <feGaussianBlur stdDeviation="7.5" in="shadowOffsetOuter2" result="shadowBlurOuter2"></feGaussianBlur>
            <feComposite in="shadowBlurOuter2" in2="SourceAlpha" operator="out" result="shadowBlurOuter2"></feComposite>
            <feColorMatrix values="0 0 0 0 0.35894523   0 0 0 0 0.509983392   0 0 0 0 0.981884058  0 0 0 0.295454545 0" type="matrix" in="shadowBlurOuter2" result="shadowMatrixOuter2"></feColorMatrix>
            <feMerge>
                <feMergeNode in="shadowMatrixOuter1"></feMergeNode>
                <feMergeNode in="shadowMatrixOuter2"></feMergeNode>
            </feMerge>
        </filter>
        <linearGradient x1="74.3792949%" y1="0%" x2="28.8473078%" y2="100%" id="linearGradient-4">
            <stop stop-color="#00DAFF" stop-opacity="0.5" offset="0%"></stop>
            <stop stop-color="#13015F" stop-opacity="0.5" offset="100%"></stop>
        </linearGradient>
        <path d="M55.4323288,20.1989049 C55.3868553,21.4056965 54.4186667,22.0638556 53.276362,21.6711934 L53.227186,21.6542894 C52.081952,21.2606203 51.2106418,19.9655874 51.2813964,18.7560072 L51.3078081,18.3044883 C51.3784122,17.0974804 52.3439249,16.4596316 53.4819396,16.8864129 L53.4819396,16.8864129 C54.6120752,17.3102393 55.4912997,18.6339141 55.4458939,19.8389082 L55.4323288,20.1989049 Z" id="path-5"></path>
        <filter x="-694.4%" y="-476.7%" width="1489.7%" height="1053.9%" filterUnits="objectBoundingBox" id="filter-6">
            <feMorphology radius="0.5" operator="dilate" in="SourceAlpha" result="shadowSpreadOuter1"></feMorphology>
            <feOffset dx="5" dy="5" in="shadowSpreadOuter1" result="shadowOffsetOuter1"></feOffset>
            <feGaussianBlur stdDeviation="7.5" in="shadowOffsetOuter1" result="shadowBlurOuter1"></feGaussianBlur>
            <feComposite in="shadowBlurOuter1" in2="SourceAlpha" operator="out" result="shadowBlurOuter1"></feComposite>
            <feColorMatrix values="0 0 0 0 0.198644342   0 0 0 0 0.0461077704   0 0 0 0 0.415619339  0 0 0 0.352218094 0" type="matrix" in="shadowBlurOuter1" result="shadowMatrixOuter1"></feColorMatrix>
            <feMorphology radius="0.5" operator="dilate" in="SourceAlpha" result="shadowSpreadOuter2"></feMorphology>
            <feOffset dx="-5" dy="-5" in="shadowSpreadOuter2" result="shadowOffsetOuter2"></feOffset>
            <feGaussianBlur stdDeviation="7.5" in="shadowOffsetOuter2" result="shadowBlurOuter2"></feGaussianBlur>
            <feComposite in="shadowBlurOuter2" in2="SourceAlpha" operator="out" result="shadowBlurOuter2"></feComposite>
            <feColorMatrix values="0 0 0 0 0.35894523   0 0 0 0 0.509983392   0 0 0 0 0.981884058  0 0 0 0.295454545 0" type="matrix" in="shadowBlurOuter2" result="shadowMatrixOuter2"></feColorMatrix>
            <feMerge>
                <feMergeNode in="shadowMatrixOuter1"></feMergeNode>
                <feMergeNode in="shadowMatrixOuter2"></feMergeNode>
            </feMerge>
        </filter>
    </defs>
    <g id="Landing-Page-V3" stroke="none" stroke-width="1" fill="none" fill-rule="evenodd">
        <g id="01-Landing" transform="translate(-31.000000, -1260.000000)">
            <g id="Icon-/-Solicitud-Success-Copy-4" transform="translate(43.000000, 1275.000000)">
                <g id="Group-26-Copy" transform="translate(32.000000, 30.166667) rotate(-180.000000) translate(-32.000000, -30.166667) translate(0.000000, 0.666667)">
                    <path d="M46.6326667,0.940266667 C45.3806667,0.430933333 43.978,0.430933333 42.7246667,0.940266667 L25.358,7.99493333 L25.358,58.1082667 L42.7246667,51.0536 C43.978,50.5442667 45.3806667,50.5442667 46.6326667,51.0536 L61.4873333,57.0869333 C62.6873333,57.5749333 63.9993333,56.6909333 63.9993333,55.3949333 L63.9993333,9.22426667 C63.9993333,8.48026667 63.55,7.81226667 62.8606667,7.53226667 L46.6326667,0.940266667 Z" id="Fill-171" fill="#DFE8F4"></path>
                    <path d="M42.7252,51.0530667 L44.6798667,50.2584 L44.6798667,0.557066667 C44.0158667,0.557066667 43.3518667,0.685066667 42.7252,0.939733333 L25.3585333,7.99573333 L25.3585333,58.1090667 L42.7252,51.0530667 Z" id="Fill-172" fill="#CCD8E5"></path>
                    <g id="Fill-173">
                        <use fill="black" fill-opacity="1" filter="url(#filter-3)" xlink:href="#path-2"></use>
                        <use fill="#8A36FF" fill-rule="evenodd" xlink:href="#path-2"></use>
                        <use fill-opacity="0.7" fill="url(#linearGradient-1)" fill-rule="evenodd" style="mix-blend-mode: multiply;" xlink:href="#path-2"></use>
                        <use stroke="#6640FF" stroke-width="1" xlink:href="#path-2"></use>
                    </g>
                    <path d="M12.6797333,32.4997333 C12.3117333,32.4997333 12.0130667,32.2010667 12.0130667,31.8330667 L12.0130667,31.1664 C12.0130667,30.7984 12.3117333,30.4997333 12.6797333,30.4997333 C13.0477333,30.4997333 13.3464,30.7984 13.3464,31.1664 L13.3464,31.8330667 C13.3464,32.2010667 13.0477333,32.4997333 12.6797333,32.4997333" id="Fill-174" fill="#FFFFFF"></path>
                    <path d="M12.6797333,37.1664 C12.3117333,37.1664 12.0130667,36.8677333 12.0130667,36.4997333 L12.0130667,35.3330667 C12.0130667,34.9650667 12.3117333,34.6664 12.6797333,34.6664 C13.0477333,34.6664 13.3464,34.9650667 13.3464,35.3330667 L13.3464,36.4997333 C13.3464,36.8677333 13.0477333,37.1664 12.6797333,37.1664" id="Path" fill="#FFFFFF"></path>
                    <path d="M12.6797333,41.8330667 C12.3117333,41.8330667 12.0130667,41.5344 12.0130667,41.1664 L12.0130667,39.9997333 C12.0130667,39.6317333 12.3117333,39.3330667 12.6797333,39.3330667 C13.0477333,39.3330667 13.3464,39.6317333 13.3464,39.9997333 L13.3464,41.1664 C13.3464,41.5344 13.0477333,41.8330667 12.6797333,41.8330667" id="Path" fill="#FFFFFF"></path>
                    <path d="M13.3464,45.9997333 L12.6797333,45.9997333 C12.3117333,45.9997333 12.0130667,45.7010667 12.0130667,45.3330667 L12.0130667,44.6664 C12.0130667,44.2984 12.3117333,43.9997333 12.6797333,43.9997333 C13.0477333,43.9997333 13.3464,44.2984 13.3464,44.6664 C13.7144,44.6664 14.0130667,44.9650667 14.0130667,45.3330667 C14.0130667,45.7010667 13.7144,45.9997333 13.3464,45.9997333" id="Fill-176" fill="#FFFFFF"></path>
                    <path d="M42.8581333,39.71 C42.5848,39.71 42.3288,39.5406667 42.2301333,39.2686667 C42.1074667,38.922 42.2861333,38.5406667 42.6328,38.4153333 L43.8861333,37.9646667 C44.2288,37.8406667 44.6141333,38.0206667 44.7381333,38.3673333 C44.8621333,38.714 44.6821333,39.0953333 44.3354667,39.2206667 L43.0834667,39.6713333 C43.0088,39.698 42.9341333,39.71 42.8581333,39.71 M37.8488,41.51 C37.5754667,41.51 37.3194667,41.3406667 37.2208,41.0686667 C37.0981333,40.722 37.2768,40.3406667 37.6234667,40.2153333 L38.8768,39.766 C39.2248,39.6406667 39.6061333,39.822 39.7288,40.1686667 C39.8528,40.5153333 39.6728,40.8966667 39.3274667,41.0206667 L38.0741333,41.4713333 C37.9994667,41.498 37.9234667,41.51 37.8488,41.51 M32.8394667,43.3113333 C32.5661333,43.3113333 32.3101333,43.142 32.2128,42.87 C32.0874667,42.5233333 32.2688,42.142 32.6141333,42.0166667 L33.8661333,41.5673333 C34.2088,41.442 34.5941333,41.622 34.7194667,41.9673333 C34.8434667,42.314 34.6634667,42.6966667 34.3168,42.8206667 L33.0648,43.2713333 C32.9914667,43.298 32.9154667,43.3113333 32.8394667,43.3113333 M27.8301333,45.1113333 C27.5554667,45.1113333 27.2994667,44.942 27.2021333,44.67 C27.0781333,44.3233333 27.2581333,43.9406667 27.6048,43.8166667 L28.8568,43.3673333 C29.2048,43.242 29.5861333,43.4233333 29.7101333,43.7686667 C29.8328,44.1153333 29.6541333,44.498 29.3074667,44.622 L28.0541333,45.0713333 C27.9808,45.0993333 27.9034667,45.1113333 27.8301333,45.1113333 M18.6688,45.9993333 L17.3381333,45.9993333 C16.9701333,45.9993333 16.6714667,45.702 16.6714667,45.3326667 C16.6714667,44.9646667 16.9701333,44.666 17.3381333,44.666 L18.6688,44.666 C19.0381333,44.666 19.3354667,44.9646667 19.3354667,45.3326667 C19.3354667,45.702 19.0381333,45.9993333 18.6688,45.9993333 M23.9928,45.9993333 L22.6621333,45.9993333 C22.2928,45.9993333 21.9954667,45.702 21.9954667,45.3326667 C21.9954667,44.9646667 22.2928,44.666 22.6621333,44.666 L23.9928,44.666 C24.3608,44.666 24.6594667,44.9646667 24.6594667,45.3326667 C24.6594667,45.702 24.3608,45.9993333 23.9928,45.9993333" id="Fill-177" fill="#FFFFFF"></path>
                    <path d="M53.3333333,26.9053333 C52.9653333,26.9053333 52.6666667,26.6066667 52.6666667,26.2386667 L52.6666667,24.8666667 C52.6666667,24.4973333 52.9653333,24.2 53.3333333,24.2 C53.7013333,24.2 54,24.4973333 54,24.8666667 L54,26.2386667 C54,26.6066667 53.7013333,26.9053333 53.3333333,26.9053333 M53.3333333,32.3946667 C52.9653333,32.3946667 52.6666667,32.096 52.6666667,31.728 L52.6666667,30.3546667 C52.6666667,29.9866667 52.9653333,29.688 53.3333333,29.688 C53.7013333,29.688 54,29.9866667 54,30.3546667 L54,31.728 C54,32.096 53.7013333,32.3946667 53.3333333,32.3946667 M53.3333333,40.6664 C53.7013333,40.6664 54,40.9650667 54,41.3330667 L54,41.9997333 C54,42.2224 53.888,42.4304 53.7026667,42.5544 C53.592,42.6290667 53.464,42.6664 53.3333333,42.6664 C53.2466667,42.6664 53.1586667,42.6490667 53.0773333,42.6144 L52.4626667,42.3584 C52.1226667,42.2170667 51.9626667,41.8264 52.104,41.4864 C52.2093333,41.2304 52.4573333,41.0770667 52.7173333,41.0770667 C52.8186667,40.8357333 53.056,40.6664 53.3333333,40.6664 Z M48.0621333,39.078 L49.2901333,39.59 C49.6301333,39.7326667 49.7901333,40.122 49.6501333,40.462 C49.5434667,40.718 49.2941333,40.8726667 49.0341333,40.8726667 C48.9474667,40.8726667 48.8608,40.8553333 48.7768,40.8206667 L47.5501333,40.3086667 C47.2101333,40.166 47.0501333,39.7766667 47.1901333,39.4366667 C47.3314667,39.0966667 47.7248,38.9353333 48.0621333,39.078 Z M53.3333333,35.1773333 C53.7013333,35.1773333 54,35.476 54,35.844 L54,37.216 C54,37.5853333 53.7013333,37.8826667 53.3333333,37.8826667 C52.9653333,37.8826667 52.6666667,37.5853333 52.6666667,37.216 L52.6666667,35.844 C52.6666667,35.476 52.9653333,35.1773333 53.3333333,35.1773333 Z" id="Fill-179" fill="#28D7D8"></path>
                    <path d="M52.6666667,20.7497333 L52.6666667,20.0830667 C52.6666667,19.7150667 52.9653333,19.4164 53.3333333,19.4164 C53.7013333,19.4164 54,19.7150667 54,20.0830667 L54,20.7497333 C54,21.1177333 53.7013333,21.4164 53.3333333,21.4164 C52.9653333,21.4164 52.6666667,21.1177333 52.6666667,20.7497333 Z" id="Fill-180" fill="#FFFFFF"></path>
                    <path d="M7.12893333,28.4646667 L6.27426667,27.61 C6.00626667,27.342 6.00626667,26.9073333 6.27426667,26.638 L13.2582667,19.6553333 C13.5262667,19.3873333 13.9609333,19.3873333 14.2289333,19.6553333 L15.0836,20.51 C15.3529333,20.778 15.3529333,21.214 15.0836,21.482 L8.10093333,28.4646667 C7.83293333,28.734 7.39693333,28.734 7.12893333,28.4646667" id="Fill-181" fill="#FFFFFF"></path>
                    <path d="M13.7122279,19.1719147 C13.9802279,18.9039147 14.4162279,18.9039147 14.6842279,19.1719147 L18.4636667,22.9193333 C18.7343333,23.1886667 18.7343333,23.6246667 18.4636667,23.8926667 L17.6103333,24.746 C17.3423333,25.0153333 16.9063333,25.0153333 16.6383333,24.746 L12.8575612,20.9985814 C12.5895612,20.7305814 12.5895612,20.2959147 12.8575612,20.0265814 L13.7122279,19.1719147 Z" id="Fill-182" fill="#FFFFFF"></path>
                    <g id="Fill-183">
                        <use fill="black" fill-opacity="1" filter="url(#filter-6)" xlink:href="#path-5"></use>
                        <use fill="#8A36FF" fill-rule="evenodd" xlink:href="#path-5"></use>
                        <use fill-opacity="0.7" fill="url(#linearGradient-4)" fill-rule="evenodd" style="mix-blend-mode: multiply;" xlink:href="#path-5"></use>
                        <use stroke="#6640FF" stroke-width="1" xlink:href="#path-5"></use>
                    </g>
                </g>
            </g>
        </g>
    </g>
</svg>