<?xml version="1.0" encoding="UTF-8"?>
<svg width="28px" height="30px" viewBox="0 0 28 30" version="1.1" xmlns="http://www.w3.org/2000/svg" xmlns:xlink="http://www.w3.org/1999/xlink">
    <title>563F0F28-CCBC-40C6-9AC1-0B1080751BCA</title>
    <defs>
        <linearGradient x1="100%" y1="28.0582445%" x2="6.61750627%" y2="71.9417555%" id="linearGradient-1">
            <stop stop-color="#00DAFF" stop-opacity="0.5" offset="0%"></stop>
            <stop stop-color="#13015F" stop-opacity="0.5" offset="100%"></stop>
        </linearGradient>
        <path d="M6.54814453,12.9381793 L24.5715495,12.9381793 C25.6192025,12.9381793 26.46875,13.7824502 26.46875,14.823596 L26.46875,25.5058877 C26.46875,26.5470335 25.6192025,27.3913043 24.5715495,27.3913043 L6.54814453,27.3913043 C5.50049154,27.3913043 4.65094401,26.5470335 4.65094401,25.5058877 L4.65094401,14.823596 C4.65094401,13.7824502 5.50049154,12.9381793 6.54814453,12.9381793" id="path-2"></path>
        <filter x="-64.2%" y="-96.9%" width="228.3%" height="293.7%" filterUnits="objectBoundingBox" id="filter-3">
            <feMorphology radius="0.5" operator="dilate" in="SourceAlpha" result="shadowSpreadOuter1"></feMorphology>
            <feOffset dx="1" dy="1" in="shadowSpreadOuter1" result="shadowOffsetOuter1"></feOffset>
            <feGaussianBlur stdDeviation="4" in="shadowOffsetOuter1" result="shadowBlurOuter1"></feGaussianBlur>
            <feComposite in="shadowBlurOuter1" in2="SourceAlpha" operator="out" result="shadowBlurOuter1"></feComposite>
            <feColorMatrix values="0 0 0 0 0.198644342   0 0 0 0 0.0461077704   0 0 0 0 0.415619339  0 0 0 0.352218094 0" type="matrix" in="shadowBlurOuter1" result="shadowMatrixOuter1"></feColorMatrix>
            <feMorphology radius="0.5" operator="dilate" in="SourceAlpha" result="shadowSpreadOuter2"></feMorphology>
            <feOffset dx="-1" dy="-1" in="shadowSpreadOuter2" result="shadowOffsetOuter2"></feOffset>
            <feGaussianBlur stdDeviation="4" in="shadowOffsetOuter2" result="shadowBlurOuter2"></feGaussianBlur>
            <feComposite in="shadowBlurOuter2" in2="SourceAlpha" operator="out" result="shadowBlurOuter2"></feComposite>
            <feColorMatrix values="0 0 0 0 0.35894523   0 0 0 0 0.509983392   0 0 0 0 0.981884058  0 0 0 0.295454545 0" type="matrix" in="shadowBlurOuter2" result="shadowMatrixOuter2"></feColorMatrix>
            <feMerge>
                <feMergeNode in="shadowMatrixOuter1"></feMergeNode>
                <feMergeNode in="shadowMatrixOuter2"></feMergeNode>
            </feMerge>
        </filter>
    </defs>
    <g id="Landing-Page-V3" stroke="none" stroke-width="1" fill="none" fill-rule="evenodd">
        <g id="04-Datos" transform="translate(-41.000000, -175.000000)">
            <g id="Group-24" transform="translate(25.000000, 165.000000)">
                <g id="Graphic-/-Illustration-/-Card" transform="translate(16.000000, 10.000000)">
                    <path d="M21.2331055,2.39130435 L3.20970052,2.39130435 C2.16204753,2.39130435 1.3125,3.23557518 1.3125,4.27672101 L1.3125,14.9590127 C1.3125,16.0001585 2.16204753,16.8444293 3.20970052,16.8444293 L3.70234375,16.8444293 L21.2278646,16.8444293 L21.2331055,16.8444293 C22.2807585,16.8444293 23.130306,16.0001585 23.130306,14.9590127 L23.130306,4.27672101 C23.130306,3.23557518 22.2807585,2.39130435 21.2331055,2.39130435" id="Fill-1" fill="#DFE8F4"></path>
                    <g id="Fill-3">
                        <use fill="black" fill-opacity="1" filter="url(#filter-3)" xlink:href="#path-2"></use>
                        <use fill="#8A36FF" fill-rule="evenodd" xlink:href="#path-2"></use>
                        <use fill-opacity="0.7" fill="url(#linearGradient-1)" fill-rule="evenodd" style="mix-blend-mode: multiply;" xlink:href="#path-2"></use>
                        <use stroke="#6640FF" stroke-width="1" xlink:href="#path-2"></use>
                    </g>
                    <path d="M11.1253766,22.0078668 C10.4262425,21.3115127 9.29159082,21.3099502 8.59036035,22.004221 C7.88965397,22.6990127 7.88808171,23.8271377 8.58721582,24.5234918 C9.28634993,25.219846 10.4210016,25.2214085 11.121708,24.5271377 C11.1232803,24.5255752 11.1243285,24.5245335 11.1253766,24.5234918 C10.4278148,23.8281793 10.4278148,22.7031793 11.1253766,22.0078668" id="Fill-5" fill="#FFFFFF"></path>
                    <path d="M12.3936709,21.4870238 C11.9177985,21.485471 11.4613174,21.672971 11.1253766,22.0078668 C11.8229385,22.7031793 11.8229385,23.8281793 11.1253766,24.5234918 C11.8229385,25.2214085 12.9575902,25.2255752 13.6603929,24.532346 C14.3626715,23.8391168 14.3663402,22.7109918 13.6687783,22.0130752 C13.3317894,21.6755752 12.8721637,21.4859918 12.3936709,21.4870238" id="Fill-7" fill="#FFFFFF" opacity="0.442173549"></path>
                    <path d="M11.1253766,22.0078668 C10.4278148,22.7031793 10.4278148,23.8281793 11.1253766,24.5234918 C11.8229385,23.8281793 11.8229385,22.7031793 11.1253766,22.0078668" id="Fill-9" fill="#D5C2E2"></path>
                    <path d="M11.0575596,18.7740127 L8.39152116,18.7740127 C8.22328874,18.7740127 8.0875498,18.638596 8.0875498,18.4719293 C8.0875498,18.3052627 8.22328874,18.169846 8.39152116,18.169846 L8.39152116,18.169846 L11.0418369,18.169846 C11.2095452,18.166721 11.3479046,18.3000543 11.3510492,18.466721 C11.3510492,18.4682835 11.3510492,18.4703668 11.3510492,18.4719293 C11.3510492,18.6349502 11.2210752,18.7682835 11.0575596,18.7740127" id="Fill-11" fill="#CCD8E5"></path>
                    <path d="M14.9884333,18.7740127 L12.3223949,18.7740127 C12.1541624,18.7740127 12.0184235,18.638596 12.0184235,18.4719293 C12.0184235,18.3052627 12.1541624,18.169846 12.3223949,18.169846 L12.3223949,18.169846 L14.9727106,18.169846 C15.1404189,18.166721 15.2787783,18.3000543 15.2819229,18.466721 C15.2819229,18.4682835 15.2819229,18.4703668 15.2819229,18.4719293 C15.2819229,18.6349502 15.1519489,18.7682835 14.9884333,18.7740127" id="Fill-13" fill="#CCD8E5"></path>
                    <path d="M18.919307,18.7740127 L16.2532686,18.7740127 C16.0850361,18.7740127 15.9492972,18.638596 15.9492972,18.4719293 C15.9492972,18.3052627 16.0850361,18.169846 16.2532686,18.169846 L16.2532686,18.169846 L18.9035843,18.169846 C19.0712926,18.166721 19.209652,18.3000543 19.2127965,18.466721 C19.2127965,18.4682835 19.2127965,18.4703668 19.2127965,18.4719293 C19.2127965,18.6349502 19.0828226,18.7682835 18.919307,18.7740127" id="Fill-15" fill="#CCD8E5"></path>
                    <path d="M22.8502331,18.7740127 L20.1841947,18.7740127 C20.0159622,18.7740127 19.8802233,18.638596 19.8802233,18.4719293 C19.8802233,18.3052627 20.0159622,18.169846 20.1841947,18.169846 L20.1841947,18.169846 L22.8345104,18.169846 C23.0022188,18.166721 23.1405781,18.3000543 23.1437227,18.466721 C23.1437227,18.4682835 23.1437227,18.4703668 23.1437227,18.4719293 C23.1437227,18.6349502 23.0137487,18.7682835 22.8502331,18.7740127" id="Fill-17" fill="#CCD8E5"></path>
                    <path d="M19.8333333,23.8650362 L18.4602214,23.8650362 C18.292513,23.8650362 18.15625,23.7296196 18.15625,23.5629529 C18.15625,23.3962862 18.292513,23.2608696 18.4602214,23.2608696 L18.4602214,23.2608696 L19.8176107,23.2608696 C19.985319,23.2608696 20.121582,23.3962862 20.121582,23.5629529 C20.121582,23.7238904 19.9952767,23.8567029 19.8333333,23.8650362" id="Fill-19" fill="#CCD8E5"></path>
                    <path d="M22.6666016,23.8650362 L21.3039714,23.8650362 C21.136263,23.8650362 21,23.7296196 21,23.5629529 C21,23.3962862 21.136263,23.2608696 21.3039714,23.2608696 L21.3039714,23.2608696 L22.6666016,23.2608696 C22.8343099,23.2608696 22.9705729,23.3962862 22.9705729,23.5629529 C22.9705729,23.7296196 22.8343099,23.8650362 22.6666016,23.8650362 Z" id="Fill-21" fill="#CCD8E5"></path>
                    <polygon id="Fill-23" fill="#CCD8E5" points="1.3125 9.84442935 23.130306 9.84442935 23.130306 5.80797101 1.3125 5.80797101"></polygon>
                </g>
            </g>
        </g>
    </g>
</svg>