<?xml version="1.0" encoding="UTF-8"?>
<svg width="33px" height="40px" viewBox="0 0 33 40" version="1.1" xmlns="http://www.w3.org/2000/svg" xmlns:xlink="http://www.w3.org/1999/xlink">
    <title>C5BBB190-C7AA-4D17-95FF-B67F8141CD0F</title>
    <g id="Landing-Page-V3" stroke="none" stroke-width="1" fill="none" fill-rule="evenodd">
        <g id="05-Resumen" transform="translate(-31.000000, -391.000000)" fill="#5932FD">
            <path d="M34.9163162,400.336245 C35.3886696,398.222731 37.4805896,396.893363 39.588586,397.366922 C41.6966513,397.840481 43.0227046,399.937739 42.5503512,402.051183 L42.5503512,402.051183 L41.3425587,407.432432 L58.6425213,402.842385 C60.7309915,402.288239 62.8720374,403.536398 63.4247723,405.630197 C63.9774383,407.723858 62.7325255,409.870506 60.6440553,410.424513 L60.6440553,410.424513 L53.0812942,412.431154 L53.0812942,412.431154 L46.6320757,414.142288 C44.5436745,414.696433 43.3101461,416.886383 43.8770255,419.033722 C44.4438358,421.18113 46.5964042,422.47273 48.6848744,421.918584 L48.6848744,421.918584 L49.1133457,421.804933 C48.2456395,422.816866 47.8756086,424.261268 48.2524012,425.688654 C48.7606331,427.61381 50.464031,428.892404 52.2889326,428.867917 L52.2889326,428.867917 L45.7398065,430.605544 C39.4745339,432.267911 33.0513273,428.523504 31.3931914,422.242176 C30.8175494,420.061564 30.8924802,417.862 31.4969629,415.849686 C31.5074504,415.624943 31.5362222,415.398124 31.587004,415.171029 L31.587004,415.171029 Z M54.746049,420.260905 C56.5291411,419.779753 58.3785727,420.945964 58.8769135,422.865718 C59.3751852,424.785402 58.333633,426.731692 56.5505409,427.212845 L56.5505409,427.212845 L52.9670988,428.179795 C51.1840758,428.660878 49.3346441,427.494737 48.8363034,425.575053 C48.3380317,423.655299 49.3795839,421.709009 51.1626759,421.227856 L51.1626759,421.227856 Z M53.2101432,413.137961 C54.938344,412.685281 56.7280655,413.751796 57.1996771,415.515439 C57.6712192,417.279082 56.6489081,419.08224 54.9206378,419.534989 L54.9206378,419.534989 L54.6110212,419.616013 L51.0065812,420.560201 L48.4304932,421.234925 C46.7022923,421.687605 44.9125709,420.621021 44.4409593,418.857378 C43.9693477,417.093667 44.9917283,415.290577 46.7199986,414.837897 L46.7199986,414.837897 Z M56.4211033,398.320634 C56.9428771,398.185087 57.4790027,398.48593 57.6185196,398.992607 C57.7581055,399.499283 57.448298,400.01983 56.9265242,400.155377 L56.9265242,400.155377 L53.1476316,401.13697 C52.6258578,401.272584 52.0897322,400.971674 51.9502153,400.464997 C51.8106294,399.958321 52.1204369,399.437775 52.6422107,399.302228 L52.6422107,399.302228 Z M44.5515049,391.029471 C45.0688484,390.898253 45.5929353,391.217519 45.7222201,391.742532 L45.7222201,391.742532 L46.658547,395.545037 C46.7877637,396.070049 46.4732706,396.602045 45.9559953,396.733263 C45.43872,396.864413 44.9145649,396.545216 44.7852801,396.020203 L44.7852801,396.020203 L43.8489532,392.217698 C43.7197366,391.692685 44.0342977,391.16069 44.5515049,391.029471 Z M51.4080296,391.782316 C51.6075385,391.28076 52.1694691,391.038415 52.6631056,391.241083 C53.1568101,391.44389 53.3952276,392.014915 53.1957188,392.516471 L53.1957188,392.516471 L51.750793,396.14985 C51.5512842,396.651475 50.9893535,396.89382 50.495649,396.691082 C50.0020125,396.488276 49.763527,395.91732 49.9630358,395.415695 L49.9630358,395.415695 Z" id="Fill-67"></path>
        </g>
    </g>
</svg>