<svg xmlns="http://www.w3.org/2000/svg" xmlns:xlink="http://www.w3.org/1999/xlink" width="20" height="20" viewBox="0 0 76 74">
    <defs>
        <linearGradient id="rmqfj6vhac" x1="100%" x2="6.618%" y1="0%" y2="100%">
            <stop offset="0%" stop-color="#00DAFF" stop-opacity=".5"/>
            <stop offset="100%" stop-color="#13015F" stop-opacity=".5"/>
        </linearGradient>
        <filter id="i7lusu722a" width="220.6%" height="216.5%" x="-60.3%" y="-62.5%" filterUnits="objectBoundingBox">
            <feMorphology in="SourceAlpha" operator="dilate" radius=".45" result="shadowSpreadOuter1"/>
            <feOffset dx="5" dy="5" in="shadowSpreadOuter1" result="shadowOffsetOuter1"/>
            <feGaussianBlur in="shadowOffsetOuter1" result="shadowBlurOuter1" stdDeviation="7"/>
            <feComposite in="shadowBlurOuter1" in2="SourceAlpha" operator="out" result="shadowBlurOuter1"/>
            <feColorMatrix in="shadowBlurOuter1" result="shadowMatrixOuter1" values="0 0 0 0 0.198644342 0 0 0 0 0.0461077704 0 0 0 0 0.415619339 0 0 0 0.352218094 0"/>
            <feMorphology in="SourceAlpha" operator="dilate" radius=".45" result="shadowSpreadOuter2"/>
            <feOffset dx="-5" dy="-5" in="shadowSpreadOuter2" result="shadowOffsetOuter2"/>
            <feGaussianBlur in="shadowOffsetOuter2" result="shadowBlurOuter2" stdDeviation="7"/>
            <feComposite in="shadowBlurOuter2" in2="SourceAlpha" operator="out" result="shadowBlurOuter2"/>
            <feColorMatrix in="shadowBlurOuter2" result="shadowMatrixOuter2" values="0 0 0 0 0.35894523 0 0 0 0 0.509983392 0 0 0 0 0.981884058 0 0 0 0.295454545 0"/>
            <feMorphology in="SourceAlpha" operator="dilate" radius=".45" result="shadowSpreadOuter3"/>
            <feOffset dy="1" in="shadowSpreadOuter3" result="shadowOffsetOuter3"/>
            <feGaussianBlur in="shadowOffsetOuter3" result="shadowBlurOuter3" stdDeviation="2.5"/>
            <feComposite in="shadowBlurOuter3" in2="SourceAlpha" operator="out" result="shadowBlurOuter3"/>
            <feColorMatrix in="shadowBlurOuter3" result="shadowMatrixOuter3" values="0 0 0 0 0.364705882 0 0 0 0 0.145098039 0 0 0 0 0.815686275 0 0 0 1 0"/>
            <feMerge>
                <feMergeNode in="shadowMatrixOuter1"/>
                <feMergeNode in="shadowMatrixOuter2"/>
                <feMergeNode in="shadowMatrixOuter3"/>
            </feMerge>
        </filter>
        <path id="s2mw56p8yb" d="M151 31.878l-11.08 6.786c-.423.26-.977.127-1.237-.297-.125-.204-.163-.448-.108-.68l3.03-12.635-9.877-8.44c-.378-.323-.423-.89-.1-1.269.155-.181.376-.293.614-.312l12.952-1.022 4.975-12.003c.19-.46.716-.677 1.176-.487.22.092.395.267.486.487l4.975 12.003 12.952 1.022c.496.039.866.472.827.968-.019.238-.131.458-.313.613l-9.878 8.44 3.03 12.635c.117.483-.181.969-.664 1.085-.232.055-.477.017-.68-.108L151 31.878z"/>
    </defs>
    <g fill="none" fill-rule="evenodd" transform="translate(-113 17)">
        <use fill="#ffffff" filter="url(#i7lusu722a)" xlink:href="#s2mw56p8yb"/>
        <use fill="#ffffff" xlink:href="#s2mw56p8yb"/>
        <use fill="#ffffff" fill-opacity=".7" style="mix-blend-mode:multiply" xlink:href="#s2mw56p8yb"/>
        <use stroke="#ffffff" stroke-width=".9" xlink:href="#s2mw56p8yb"/>
    </g>
</svg>
